<svg width="1025" height="1024" viewBox="0 0 1025 1024" fill="none" xmlns="http://www.w3.org/2000/svg">
<g clip-path="url(#clip0)">
<rect width="1024" height="1024" transform="translate(0.23584)" fill="white"/>
<circle cx="511.5" cy="512.5" r="476.5" fill="white"/>
<g filter="url(#filter0_d)">
<path d="M115.8 652.985C99.4704 665.818 95.4279 689.332 108.909 704.624C137.723 737.309 173.401 762.221 213.001 777.004C263.523 795.865 317.929 797.307 368.691 781.131C419.452 764.954 464.057 731.96 496.332 686.714C528.608 641.468 546.958 586.209 548.841 528.584C550.725 470.959 536.05 413.819 506.847 365.072C477.645 316.325 435.358 278.383 385.842 256.496C336.325 234.609 282.026 229.861 230.462 242.909C190.813 252.941 154.289 273.112 123.801 301.523C108.156 316.102 109.767 340.463 124.959 354.877C141.86 370.914 168.823 368.236 187.708 353.826C206.072 339.814 226.875 329.659 249.076 324.042C285.208 314.899 323.256 318.226 357.953 333.563C392.65 348.899 422.28 375.485 442.743 409.643C463.206 443.8 473.489 483.839 472.169 524.218C470.849 564.596 457.991 603.317 435.375 635.021C412.759 666.726 381.504 689.845 345.935 701.18C310.366 712.515 272.243 711.505 236.842 698.289C213.707 689.652 192.482 676.082 174.362 658.535C158.531 643.203 133.469 639.099 115.8 652.985Z" fill="url(#paint0_linear)"/>
</g>
<g filter="url(#filter1_d)">
<path d="M907.2 652.985C923.53 665.818 927.572 689.332 914.091 704.624C885.277 737.309 849.599 762.221 809.999 777.004C759.477 795.865 705.071 797.307 654.309 781.131C603.548 764.954 558.943 731.96 526.668 686.714C494.392 641.468 476.042 586.209 474.159 528.584C472.275 470.959 486.95 413.819 516.153 365.072C545.355 316.325 587.642 278.383 637.158 256.496C686.675 234.609 740.974 229.861 792.538 242.909C832.187 252.941 868.711 273.112 899.199 301.523C914.844 316.102 913.233 340.463 898.041 354.877C881.14 370.914 854.177 368.236 835.292 353.826C816.928 339.814 796.125 329.659 773.924 324.042C737.792 314.899 699.744 318.226 665.047 333.563C630.35 348.899 600.72 375.485 580.257 409.643C559.794 443.8 549.511 483.839 550.831 524.218C552.151 564.596 565.009 603.317 587.625 635.021C610.241 666.726 641.496 689.845 677.065 701.18C712.634 712.515 750.757 711.505 786.158 698.289C809.293 689.652 830.518 676.082 848.638 658.535C864.469 643.203 889.531 639.099 907.2 652.985Z" fill="url(#paint1_linear)"/>
</g>
<g filter="url(#filter2_d)">
<path d="M642 178H434.691C407.093 178 384.714 200.36 384.691 227.958L384.436 528.5M642 528.5H384.436M384.436 528.5L381 845.63" stroke="url(#paint2_linear)" stroke-width="70" stroke-linecap="round" stroke-linejoin="round"/>
</g>
</g>
<defs>
<filter id="filter0_d" x="96.8032" y="235.701" width="456.199" height="564.588" filterUnits="userSpaceOnUse" color-interpolation-filters="sRGB">
<feFlood flood-opacity="0" result="BackgroundImageFix"/>
<feColorMatrix in="SourceAlpha" type="matrix" values="0 0 0 0 0 0 0 0 0 0 0 0 0 0 0 0 0 0 127 0"/>
<feOffset dy="4"/>
<feGaussianBlur stdDeviation="2"/>
<feColorMatrix type="matrix" values="0 0 0 0 0 0 0 0 0 0 0 0 0 0 0 0 0 0 0.25 0"/>
<feBlend mode="normal" in2="BackgroundImageFix" result="effect1_dropShadow"/>
<feBlend mode="normal" in="SourceGraphic" in2="effect1_dropShadow" result="shape"/>
</filter>
<filter id="filter1_d" x="469.998" y="235.701" width="456.199" height="564.588" filterUnits="userSpaceOnUse" color-interpolation-filters="sRGB">
<feFlood flood-opacity="0" result="BackgroundImageFix"/>
<feColorMatrix in="SourceAlpha" type="matrix" values="0 0 0 0 0 0 0 0 0 0 0 0 0 0 0 0 0 0 127 0"/>
<feOffset dy="4"/>
<feGaussianBlur stdDeviation="2"/>
<feColorMatrix type="matrix" values="0 0 0 0 0 0 0 0 0 0 0 0 0 0 0 0 0 0 0.25 0"/>
<feBlend mode="normal" in2="BackgroundImageFix" result="effect1_dropShadow"/>
<feBlend mode="normal" in="SourceGraphic" in2="effect1_dropShadow" result="shape"/>
</filter>
<filter id="filter2_d" x="342" y="143" width="339" height="745.63" filterUnits="userSpaceOnUse" color-interpolation-filters="sRGB">
<feFlood flood-opacity="0" result="BackgroundImageFix"/>
<feColorMatrix in="SourceAlpha" type="matrix" values="0 0 0 0 0 0 0 0 0 0 0 0 0 0 0 0 0 0 127 0"/>
<feOffset dy="4"/>
<feGaussianBlur stdDeviation="2"/>
<feColorMatrix type="matrix" values="0 0 0 0 0 0 0 0 0 0 0 0 0 0 0 0 0 0 0.25 0"/>
<feBlend mode="normal" in2="BackgroundImageFix" result="effect1_dropShadow"/>
<feBlend mode="normal" in="SourceGraphic" in2="effect1_dropShadow" result="shape"/>
</filter>
<linearGradient id="paint0_linear" x1="357.241" y1="784.465" x2="215.254" y2="246.912" gradientUnits="userSpaceOnUse">
<stop stop-color="#C733B8" stop-opacity="0.78"/>
<stop offset="1" stop-color="#4200FF"/>
</linearGradient>
<linearGradient id="paint1_linear" x1="665.759" y1="784.465" x2="807.746" y2="246.912" gradientUnits="userSpaceOnUse">
<stop stop-color="#C733B8" stop-opacity="0.78"/>
<stop stop-color="#C733B8" stop-opacity="0.78"/>
<stop offset="0.0001" stop-color="#4200FF"/>
<stop offset="1" stop-color="#C733B8" stop-opacity="0.78"/>
</linearGradient>
<linearGradient id="paint2_linear" x1="557.758" y1="150" x2="557.758" y2="882.829" gradientUnits="userSpaceOnUse">
<stop stop-color="#0075FF"/>
<stop offset="0.739583" stop-color="#FF0000" stop-opacity="0.484375"/>
<stop offset="0.9999" stop-color="#B324CA" stop-opacity="0.484375"/>
<stop offset="1" stop-color="#00FF57" stop-opacity="0"/>
</linearGradient>
<clipPath id="clip0">
<rect width="1024" height="1024" fill="white" transform="translate(0.23584)"/>
</clipPath>
</defs>
</svg>
